<svg width="24" height="24" viewBox="0 0 24 24" fill="none" xmlns="http://www.w3.org/2000/svg">
<path d="M12 2C10.0222 2 8.08879 2.58649 6.4443 3.6853C4.79981 4.78412 3.51809 6.3459 2.76121 8.17316C2.00433 10.0004 1.8063 12.0111 2.19215 13.9509C2.578 15.8907 3.53041 17.6725 4.92894 19.0711C6.32746 20.4696 8.10929 21.422 10.0491 21.8078C11.9889 22.1937 13.9996 21.9957 15.8268 21.2388C17.6541 20.4819 19.2159 19.2002 20.3147 17.5557C21.4135 15.9112 22 13.9778 22 12C21.9947 9.34946 20.9394 6.80899 19.0652 4.93477C17.191 3.06055 14.6505 2.00529 12 2ZM12 21.2C10.1804 21.2 8.40169 20.6604 6.88876 19.6495C5.37583 18.6386 4.19664 17.2018 3.50031 15.5207C2.80399 13.8396 2.6218 11.9898 2.97678 10.2052C3.33176 8.42054 4.20798 6.78126 5.49462 5.49462C6.78126 4.20797 8.42055 3.33176 10.2052 2.97678C11.9898 2.62179 13.8396 2.80398 15.5207 3.50031C17.2018 4.19663 18.6386 5.37582 19.6495 6.88875C20.6604 8.40168 21.2 10.1804 21.2 12C21.1974 14.4392 20.2272 16.7777 18.5025 18.5025C16.7777 20.2272 14.4392 21.1973 12 21.2ZM18 12C18 12.1061 17.9579 12.2078 17.8828 12.2828C17.8078 12.3579 17.7061 12.4 17.6 12.4H12C11.8939 12.4 11.7922 12.3579 11.7172 12.2828C11.6421 12.2078 11.6 12.1061 11.6 12V6.4C11.6 6.29391 11.6421 6.19217 11.7172 6.11716C11.7922 6.04214 11.8939 6 12 6C12.1061 6 12.2078 6.04214 12.2828 6.11716C12.3579 6.19217 12.4 6.29391 12.4 6.4V11.6H17.6C17.7061 11.6 17.8078 11.6421 17.8828 11.7172C17.9579 11.7922 18 11.8939 18 12Z" fill="#4B4B4B"/>
</svg>
