<svg width="48" height="48" viewBox="0 0 48 48" fill="none" xmlns="http://www.w3.org/2000/svg">
<path d="M34.2128 17.5094H29.8723V14.0755C29.8723 12.4642 29.2537 10.9188 28.1524 9.77946C27.0511 8.64009 25.5574 8 24 8C22.4426 8 20.9489 8.64009 19.8476 9.77946C18.7464 10.9188 18.1277 12.4642 18.1277 14.0755V17.5094H13.7872C13.3132 17.5094 12.8586 17.7042 12.5235 18.051C12.1883 18.3978 12 18.8681 12 19.3585V34.1509C12 34.6413 12.1883 35.1117 12.5235 35.4584C12.8586 35.8052 13.3132 36 13.7872 36H34.2128C34.6868 36 35.1414 35.8052 35.4765 35.4584C35.8117 35.1117 36 34.6413 36 34.1509V19.3585C36 18.8681 35.8117 18.3978 35.4765 18.051C35.1414 17.7042 34.6868 17.5094 34.2128 17.5094ZM19.6596 14.0755C19.6596 12.8845 20.1169 11.7423 20.9309 10.9002C21.7448 10.058 22.8488 9.58491 24 9.58491C25.1512 9.58491 26.2552 10.058 27.0691 10.9002C27.8831 11.7423 28.3404 12.8845 28.3404 14.0755V17.5094H19.6596V14.0755ZM34.4681 34.1509C34.4681 34.221 34.4412 34.2882 34.3933 34.3377C34.3454 34.3873 34.2805 34.4151 34.2128 34.4151H13.7872C13.7195 34.4151 13.6546 34.3873 13.6067 34.3377C13.5588 34.2882 13.5319 34.221 13.5319 34.1509V19.3585C13.5319 19.2884 13.5588 19.2212 13.6067 19.1717C13.6546 19.1222 13.7195 19.0943 13.7872 19.0943H34.2128C34.2805 19.0943 34.3454 19.1222 34.3933 19.1717C34.4412 19.2212 34.4681 19.2884 34.4681 19.3585V34.1509ZM24 21.7358C23.1872 21.737 22.4031 22.0466 21.7963 22.606C21.1895 23.1653 20.8022 23.9356 20.7077 24.7708C20.6133 25.606 20.8183 26.448 21.284 27.1372C21.7496 27.8264 22.4435 28.3148 23.234 28.51V30.9811C23.234 31.1913 23.3147 31.3929 23.4584 31.5415C23.602 31.6901 23.7969 31.7736 24 31.7736C24.2031 31.7736 24.398 31.6901 24.5416 31.5415C24.6853 31.3929 24.766 31.1913 24.766 30.9811V28.51C25.5565 28.3148 26.2504 27.8264 26.716 27.1372C27.1817 26.448 27.3867 25.606 27.2923 24.7708C27.1978 23.9356 26.8105 23.1653 26.2037 22.606C25.5969 22.0466 24.8128 21.737 24 21.7358ZM24 27.0189C23.6465 27.0189 23.301 26.9104 23.0071 26.7072C22.7132 26.5041 22.4841 26.2153 22.3488 25.8774C22.2135 25.5395 22.1781 25.1678 22.2471 24.8091C22.3161 24.4504 22.4863 24.1209 22.7362 23.8623C22.9862 23.6037 23.3046 23.4276 23.6513 23.3563C23.998 23.2849 24.3574 23.3216 24.6839 23.4615C25.0105 23.6015 25.2896 23.8385 25.486 24.1425C25.6824 24.4466 25.7872 24.8041 25.7872 25.1698C25.7872 25.6602 25.5989 26.1305 25.2638 26.4773C24.9286 26.8241 24.474 27.0189 24 27.0189Z" fill="#4B4B4B"/>
</svg>
